<svg id="L_Chapter" xmlns="http://www.w3.org/2000/svg" width="40" height="40" viewBox="0 0 40 40">
  <circle id="_398" data-name=" 398" cx="20" cy="20" r="20" fill="#fff" opacity="0"/>
  <g id="M_Chapter" transform="translate(8 8)">
    <rect id="frame" width="24" height="24" fill="none"/>
    <path id="_43" data-name=" 43" d="M18307,22328.754a3,3,0,0,1-3-3v-11.93a2.991,2.991,0,0,1,1.334-2.5l4-2.666a2.947,2.947,0,0,1,.66-.332V22307a1,1,0,1,1,2,0v1.326a3.009,3.009,0,0,1,.668.334l4,2.666a3,3,0,0,1,1.334,2.5v11.93a3,3,0,0,1-3,3Zm-.555-15.764a1,1,0,0,0-.443.836v11.93a1,1,0,0,0,1,1h8a1,1,0,0,0,1-1v-11.93a1.01,1.01,0,0,0-.443-.836l-3.559-2.371v2.307a3,3,0,1,1-2,0v-2.3Zm3.553,2.764a1,1,0,1,0,1-1A1,1,0,0,0,18310,22315.754Z" transform="translate(-18299 -22305.754)" fill="#fff" stroke="rgba(0,0,0,0)" stroke-miterlimit="10" stroke-width="1"/>
  </g>
</svg>
