<svg id="L_Fullscreen" xmlns="http://www.w3.org/2000/svg" xmlns:xlink="http://www.w3.org/1999/xlink" width="40" height="40" viewBox="0 0 40 40">
  <defs>
    <clipPath id="clip-path">
      <rect id="4484" data-name="4484" width="24" height="24" fill="#fff"/>
    </clipPath>
  </defs>
  <circle id="385" data-name="385" cx="20" cy="20" r="20" fill="none"/>
  <g id="M_Fullscreen" transform="translate(8 8)">
    <g id="13200" data-name="13200" clip-path="url(#clip-path)">
      <g id="13197" data-name="13197">
        <g id="13196" data-name="13196" clip-path="url(#clip-path)">
          <g id="13195" data-name="13195" opacity="0">
            <g id="13194" data-name="13194">
              <g id="13193" data-name="13193" clip-path="url(#clip-path)">
                <rect id="4480" data-name="4480" width="24" height="24" fill="#fff"/>
              </g>
            </g>
          </g>
        </g>
      </g>
      <g id="13199" data-name="13199">
        <g id="13198" data-name="13198" clip-path="url(#clip-path)">
          <path id="12018" data-name="12018" d="M4,10A1,1,0,0,1,3,9V4A1,1,0,0,1,4,3H9A1,1,0,0,1,9,5H5V9a1,1,0,0,1-1,1" fill="#fff"/>
          <path id="12019" data-name="12019" d="M20,10a1,1,0,0,1-1-1V5H15a1,1,0,0,1,0-2h5a1,1,0,0,1,1,1V9a1,1,0,0,1-1,1" fill="#fff"/>
          <path id="12020" data-name="12020" d="M20,21H15a1,1,0,0,1,0-2h4V15a1,1,0,0,1,2,0v5a1,1,0,0,1-1,1" fill="#fff"/>
          <path id="12021" data-name="12021" d="M9,21H4a1,1,0,0,1-1-1V15a1,1,0,0,1,2,0v4H9a1,1,0,0,1,0,2" fill="#fff"/>
        </g>
      </g>
    </g>
  </g>
</svg>
