<svg id="L_Playback_10s" xmlns="http://www.w3.org/2000/svg" width="40" height="40" viewBox="0 0 40 40">
  <circle id="543" data-name="543" cx="20" cy="20" r="20" fill="#fff" opacity="0"/>
  <g id="17762" data-name="17762" transform="translate(42 45)">
    <rect id="4371" data-name="4371" width="24" height="24" transform="translate(-34 -37)" fill="none"/>
    <g id="17761" data-name="17761">
      <g id="2370" data-name="2370">
        <path id="12652" data-name="12652" d="M-24.869-20.446a.661.661,0,0,0,.5-.2.752.752,0,0,0,.189-.545v-6.24a.907.907,0,0,0-.212-.635.736.736,0,0,0-.572-.237,1.082,1.082,0,0,0-.415.086,2.739,2.739,0,0,0-.476.28L-27.2-27a.968.968,0,0,0-.257.28.675.675,0,0,0-.086.343.637.637,0,0,0,.181.456.571.571,0,0,0,.433.19.867.867,0,0,0,.519-.212l.891-.686h-.018v5.445a.781.781,0,0,0,.18.54.62.62,0,0,0,.487.2Zm5.18.107a2.341,2.341,0,0,0,2-1.086,4.989,4.989,0,0,0,.763-2.915,5.05,5.05,0,0,0-.763-2.929,2.376,2.376,0,0,0-3.282-.722,2.372,2.372,0,0,0-.716.712,5.057,5.057,0,0,0-.759,2.939,5.009,5.009,0,0,0,.759,2.929,2.333,2.333,0,0,0,2,1.071Zm0-1.293a1.115,1.115,0,0,1-1-.715,4.4,4.4,0,0,1-.37-2,4.475,4.475,0,0,1,.37-2.007,1.05,1.05,0,0,1,1.324-.674,1.049,1.049,0,0,1,.673.668,4.532,4.532,0,0,1,.365,2.013,4.457,4.457,0,0,1-.366,2,1.117,1.117,0,0,1-1,.715Z" fill="#fff"/>
      </g>
      <g id="2372" data-name="2372">
        <path id="12653" data-name="12653" d="M-22-14.589h0a9.761,9.761,0,0,1-9.748-9.752,9.751,9.751,0,0,1,4.22-8.028.752.752,0,0,1,1.044.192.751.751,0,0,1-.193,1.043,8.251,8.251,0,0,0-3.571,6.793A8.259,8.259,0,0,0-22-16.089h0A8.2,8.2,0,0,0-16.168-18.5a8.192,8.192,0,0,0,2.418-5.833A8.259,8.259,0,0,0-22-32.589a.75.75,0,0,1-.75-.75.75.75,0,0,1,.75-.75h0a9.761,9.761,0,0,1,9.748,9.752,9.691,9.691,0,0,1-2.857,6.894A9.687,9.687,0,0,1-22-14.589Z" fill="#fff"/>
      </g>
      <g id="17760" data-name="17760">
        <path id="12654" data-name="12654" d="M-24.25-32.706l3.5,2.02a.5.5,0,0,0,.75-.433V-35.16a.5.5,0,0,0-.75-.433l-3.5,2.021A.5.5,0,0,0-24.25-32.706Z" fill="#fff"/>
      </g>
    </g>
  </g>
</svg>
