<svg id="L_Playforward_10s" xmlns="http://www.w3.org/2000/svg" width="40" height="40" viewBox="0 0 40 40">
  <circle id="545" data-name="545" cx="20" cy="20" r="20" fill="#fff" opacity="0"/>
  <g id="17764" data-name="17764" transform="translate(8 47)">
    <rect id="4371" data-name="4371" width="24" height="24" transform="translate(0 -39)" fill="none"/>
    <g id="17763" data-name="17763">
      <path id="2370" data-name="2370" d="M9.131-22.446a.661.661,0,0,0,.5-.2.752.752,0,0,0,.189-.545v-6.24a.907.907,0,0,0-.212-.635.736.736,0,0,0-.572-.237,1.082,1.082,0,0,0-.415.086,2.739,2.739,0,0,0-.476.28L6.8-29a.968.968,0,0,0-.257.28.675.675,0,0,0-.086.343.637.637,0,0,0,.181.456.571.571,0,0,0,.433.19.867.867,0,0,0,.519-.212l.891-.686H8.463v5.445a.781.781,0,0,0,.18.54.62.62,0,0,0,.487.2Zm5.18.107a2.341,2.341,0,0,0,2-1.086,4.989,4.989,0,0,0,.763-2.915,5.05,5.05,0,0,0-.763-2.929,2.376,2.376,0,0,0-3.282-.722,2.372,2.372,0,0,0-.716.712,5.057,5.057,0,0,0-.759,2.939,5.009,5.009,0,0,0,.759,2.929,2.333,2.333,0,0,0,2,1.071Zm0-1.293a1.115,1.115,0,0,1-1-.715,4.4,4.4,0,0,1-.37-2,4.475,4.475,0,0,1,.37-2.007,1.05,1.05,0,0,1,1.324-.674,1.049,1.049,0,0,1,.673.668,4.532,4.532,0,0,1,.365,2.013,4.457,4.457,0,0,1-.366,2,1.117,1.117,0,0,1-1,.715Z" fill="#fff"/>
      <g id="2372" data-name="2372">
        <path id="12655" data-name="12655" d="M12-16.589a9.687,9.687,0,0,1-6.892-2.854A9.691,9.691,0,0,1,2.25-26.337,9.761,9.761,0,0,1,12-36.089a.75.75,0,0,1,.75.75.75.75,0,0,1-.75.75A8.259,8.259,0,0,0,3.75-26.337,8.192,8.192,0,0,0,6.168-20.5,8.2,8.2,0,0,0,12-18.089h0a8.259,8.259,0,0,0,8.248-8.252,8.251,8.251,0,0,0-3.571-6.793.751.751,0,0,1-.193-1.043.751.751,0,0,1,1.044-.192,9.75,9.75,0,0,1,4.22,8.027A9.761,9.761,0,0,1,12-16.589Z" fill="#fff"/>
      </g>
      <path id="12656" data-name="12656" d="M14.25-34.706l-3.5,2.02a.5.5,0,0,1-.75-.433V-37.16a.5.5,0,0,1,.75-.433l3.5,2.021A.5.5,0,0,1,14.25-34.706Z" fill="#fff"/>
    </g>
  </g>
</svg>
