<svg id="L_Review" xmlns="http://www.w3.org/2000/svg" width="32" height="32" viewBox="0 0 32 32">
  <rect id="frame" width="32" height="32" fill="none"/>
  <path id="default" d="M29.965,7.3,24.7,2.036a1,1,0,0,0-1.413,0L3.272,22.047a1,1,0,0,0-.267.483l-1.58,6.845A1,1,0,0,0,2.4,30.6a1.087,1.087,0,0,0,.226-.025L9.47,29a1,1,0,0,0,.483-.268L29.965,8.715a1,1,0,0,0,0-1.414M8.741,27.111,3.733,28.266l1.156-5.008L18.566,9.582a1.053,1.053,0,0,0,.075.113L22.4,13.453ZM23.813,12.039,20.056,8.281a.894.894,0,0,0-.114-.075l4.049-4.049,3.853,3.851Z" fill="#fff"/>
</svg>
