<svg id="L_sound" xmlns="http://www.w3.org/2000/svg" width="40" height="40" viewBox="0 0 40 40">
  <circle id="546" data-name="546" cx="20" cy="20" r="20" fill="#fff" opacity="0"/>
  <g id="M_Sound" transform="translate(8 8)">
    <rect id="4556" data-name="4556" width="24" height="24" fill="none"/>
    <path id="36" data-name="36" d="M18168.8,22445.2l-4.535-3.4H18161a1,1,0,0,1-1-1v-7.2a1,1,0,0,1,1-1h3.268l4.535-3.4a1,1,0,0,1,1.6.8v14.4a1,1,0,0,1-.553.9,1.069,1.069,0,0,1-.451.107A.968.968,0,0,1,18168.8,22445.2Zm-6.8-5.4h2.6a.993.993,0,0,1,.6.2l3.205,2.4V22432l-3.205,2.4a1,1,0,0,1-.6.2h-2.6Zm15.484,4.895a.993.993,0,0,1,0-1.414,8.61,8.61,0,0,0,0-12.16,1,1,0,0,1,1.414-1.414,10.616,10.616,0,0,1,0,14.988,1,1,0,0,1-1.414,0Zm-3.4-3.4a1,1,0,0,1,0-1.414,3.793,3.793,0,0,0,0-5.373,1,1,0,0,1,1.414-1.414,5.793,5.793,0,0,1,0,8.2.981.981,0,0,1-.705.293A.993.993,0,0,1,18174.086,22441.3Z" transform="translate(-18159 -22425.199)" fill="#fff" stroke="rgba(0,0,0,0)" stroke-miterlimit="10" stroke-width="1"/>
  </g>
</svg>
