<svg id="L_Speed" xmlns="http://www.w3.org/2000/svg" width="40" height="40" viewBox="0 0 40 40">
  <circle id="399" data-name="399" cx="20" cy="20" r="20" fill="#fff" opacity="0"/>
  <g id="M_Speed" transform="translate(8 8)">
    <rect id="frame" width="24" height="24" fill="none"/>
    <g id="_1.0_default_" data-name="1.0(default)">
      <path id="12263" data-name="12263" d="M12,12a1,1,0,0,1-.707-1.707l3-3a1,1,0,0,1,1.414,1.414l-3,3A1,1,0,0,1,12,12" fill="#fff"/>
      <path id="12264" data-name="12264" d="M4.708,22.274V17.86H4.676l-.826.574a.637.637,0,0,1-.413.143.559.559,0,0,1-.571-.583.681.681,0,0,1,.336-.6l1.254-.854a1.549,1.549,0,0,1,.969-.276.877.877,0,0,1,.96.942v5.066a.784.784,0,0,1-.836.831.788.788,0,0,1-.841-.831" fill="#fff"/>
      <path id="12265" data-name="12265" d="M7.8,22.2a.852.852,0,1,1,.85.854A.848.848,0,0,1,7.8,22.2" fill="#fff"/>
      <path id="12266" data-name="12266" d="M10.164,19.675c0-2.177,1.1-3.473,2.843-3.473s2.838,1.291,2.838,3.468-1.084,3.5-2.838,3.5-2.843-1.322-2.843-3.49m3.968,0c0-1.451-.427-2.159-1.125-2.159s-1.13.712-1.13,2.154.432,2.182,1.13,2.182,1.125-.731,1.125-2.177" fill="#fff"/>
      <path id="12267" data-name="12267" d="M16.511,22.449a.871.871,0,0,1,.234-.574l1.034-1.36-1.038-1.4a.8.8,0,0,1-.174-.51.726.726,0,0,1,.771-.717c.345,0,.519.124.749.492l.78,1.212H18.9l.766-1.208c.226-.362.4-.5.708-.5a.68.68,0,0,1,.753.69.873.873,0,0,1-.234.588l-1,1.308,1.038,1.4a.81.81,0,0,1,.184.506.711.711,0,0,1-.777.72c-.331,0-.472-.142-.666-.436L18.8,21.351h-.032l-.836,1.282c-.248.38-.4.472-.694.472a.666.666,0,0,1-.73-.656" fill="#fff"/>
      <path id="12268" data-name="12268" d="M21.95,14a.893.893,0,0,1-.1-.005,1,1,0,0,1-.894-1.1A8.885,8.885,0,0,0,21,12,9,9,0,0,0,3,12a8.6,8.6,0,0,0,.046.9,1,1,0,0,1-1.991.2C1.019,12.738,1,12.371,1,12a11,11,0,0,1,22,0c0,.371-.02.738-.056,1.1a1,1,0,0,1-.994.9" fill="#fff"/>
    </g>
  </g>
</svg>
