<svg id="L_star" xmlns="http://www.w3.org/2000/svg" width="40" height="40" viewBox="0 0 40 40">
  <circle id="547" data-name="547" cx="20" cy="20" r="20" fill="#fff" opacity="0"/>
  <g id="M_Like" transform="translate(8 8)">
    <rect id="4439" data-name="4439" width="24" height="24" fill="none"/>
    <path id="11989" data-name="11989" d="M6.519,22.567a2.138,2.138,0,0,1-2.094-2.528L5.34,15.12A.131.131,0,0,0,5.3,15L1.668,11.558a2.133,2.133,0,0,1,1.19-3.665L7.82,7.245a.133.133,0,0,0,.105-.077l2.148-4.517a2.134,2.134,0,0,1,3.854,0L16.076,7.17a.132.132,0,0,0,.1.075l4.962.648a2.133,2.133,0,0,1,1.19,3.665L18.7,15a.132.132,0,0,0-.039.119l.917,4.922A2.133,2.133,0,0,1,16.459,22.3l-4.395-2.392a.13.13,0,0,0-.127,0L7.54,22.3a2.127,2.127,0,0,1-1.021.263M12,3.434a.12.12,0,0,0-.12.076L9.73,8.03a2.128,2.128,0,0,1-1.65,1.2l-4.962.648a.12.12,0,0,0-.11.092.116.116,0,0,0,.035.137l3.634,3.442a2.123,2.123,0,0,1,.629,1.942l-.915,4.917a.132.132,0,0,0,.193.142l4.4-2.393a2.126,2.126,0,0,1,2.041,0l4.394,2.391a.133.133,0,0,0,.195-.14l-.917-4.921a2.125,2.125,0,0,1,.63-1.94L20.957,10.1a.116.116,0,0,0,.035-.137.12.12,0,0,0-.11-.092L15.92,9.228a2.127,2.127,0,0,1-1.649-1.2L12.12,3.51A.12.12,0,0,0,12,3.434" fill="#fff"/>
  </g>
</svg>
