<svg id="S_Episode" xmlns="http://www.w3.org/2000/svg" width="20" height="20" viewBox="0 0 20 20">
  <rect id="3854" data-name="3854" width="20" height="20" fill="#fff" opacity="0"/>
  <path id="2387" data-name="2387" d="M17,6.5H14v-2a3,3,0,0,0-3-3H3a3,3,0,0,0-3,3v6a3,3,0,0,0,3,3H6v2a3,3,0,0,0,3,3h8a3,3,0,0,0,3-3v-6a3,3,0,0,0-3-3m-13.5,5A1.305,1.305,0,0,1,2,10V5A1.366,1.366,0,0,1,3.5,3.5h7A1.319,1.319,0,0,1,12,5V6.5H9a3,3,0,0,0-3,3v2ZM18,15c0,1-.428,1.5-1.5,1.5h-7C8.437,16.5,8,16,8,15V10A1.332,1.332,0,0,1,9.5,8.5h7A1.321,1.321,0,0,1,18,10Z" fill="#fff"/>
</svg>
