<svg id="L_play" xmlns="http://www.w3.org/2000/svg" width="40" height="40" viewBox="0 0 40 40">
  <circle id="椭圆_543" data-name="椭圆 543" cx="20" cy="20" r="20" fill="#fff" opacity="0"/>
  <g id="组_17758" data-name="组 17758" transform="translate(42 49)">
    <g id="frame">
      <rect id="長方形_4371" data-name="長方形 4371" width="24" height="24" transform="translate(-34 -41)" fill="#fff" opacity="0"/>
    </g>
    <g id="icon" transform="translate(1)">
      <g id="组_17757" data-name="组 17757">
        <path id="路径_12650" data-name="路径 12650" d="M-29-37.824-14-29l-15,8.824Z" fill="#fff"/>
        <path id="路径_12651" data-name="路径 12651" d="M-29-19.176a1,1,0,0,1-.5-.132,1,1,0,0,1-.5-.868V-37.824a1,1,0,0,1,.5-.868,1,1,0,0,1,1,.006l15,8.824A1,1,0,0,1-13-29a1,1,0,0,1-.493.862l-15,8.824A1,1,0,0,1-29-19.176Zm1-16.9v14.15L-15.973-29Z" fill="#fff"/>
      </g>
    </g>
  </g>
</svg>
