<svg id="L_Rating" xmlns="http://www.w3.org/2000/svg" width="32" height="32" viewBox="0 0 32 32">
  <rect id="frame" width="32" height="32" fill="none"/>
  <path id="default" d="M23.588,30.057a2.816,2.816,0,0,1-1.329-.333L16.4,26.6a.806.806,0,0,0-.763,0L9.783,29.725A2.814,2.814,0,0,1,5.7,26.695l1.224-6.186a.808.808,0,0,0-.251-.76L1.966,15.486A2.812,2.812,0,0,1,3.515,10.61l6.507-.792a.811.811,0,0,0,.634-.453L13.49,3.531a2.815,2.815,0,0,1,3.759-1.306,2.833,2.833,0,0,1,1.305,1.306l2.832,5.833a.812.812,0,0,0,.635.452l6.5.791a2.813,2.813,0,0,1,1.55,4.877l-4.7,4.265a.816.816,0,0,0-.25.762L26.347,26.7A2.812,2.812,0,0,1,24.134,30a2.863,2.863,0,0,1-.546.054m-7.566-5.55a2.808,2.808,0,0,1,1.323.331L23.2,27.959a.831.831,0,0,0,.543.082.812.812,0,0,0,.64-.956L23.162,20.9a2.83,2.83,0,0,1,.868-2.631L28.733,14a.809.809,0,0,0,.26-.5.813.813,0,0,0-.708-.906l-6.506-.79a2.8,2.8,0,0,1-2.192-1.565L16.754,4.4a.822.822,0,0,0-.379-.378A.811.811,0,0,0,15.29,4.4l-2.835,5.836A2.8,2.8,0,0,1,10.264,11.8L3.757,12.6A.813.813,0,0,0,3.31,14l4.706,4.263a2.827,2.827,0,0,1,.87,2.631L7.662,27.083a.813.813,0,0,0,1.181.876L14.7,24.838a2.8,2.8,0,0,1,1.322-.331" fill="#fff"/>
</svg>
