<svg id="L_Setting" xmlns="http://www.w3.org/2000/svg" xmlns:xlink="http://www.w3.org/1999/xlink" width="40" height="40" viewBox="0 0 40 40">
  <defs>
    <clipPath id="clip-path">
      <rect id="矩形_4500" data-name="矩形 4500" width="24" height="24" fill="#fff"/>
    </clipPath>
  </defs>
  <circle id="椭圆_273" data-name="椭圆 273" cx="20" cy="20" r="20" fill="#fff" opacity="0"/>
  <g id="M_Setting" transform="translate(8 8)">
    <g id="invisible_box" data-name="invisible box">
      <rect id="矩形_3645" data-name="矩形 3645" width="24" height="24" fill="none"/>
    </g>
    <g id="组_13322" data-name="组 13322">
      <g id="组_13320" data-name="组 13320" clip-path="url(#clip-path)">
        <g id="组_13317" data-name="组 13317">
          <g id="组_13316" data-name="组 13316" clip-path="url(#clip-path)">
            <g id="组_13315" data-name="组 13315" opacity="0">
              <g id="组_13314" data-name="组 13314">
                <g id="组_13313" data-name="组 13313" clip-path="url(#clip-path)">
                  <rect id="矩形_4496" data-name="矩形 4496" width="24" height="24" fill="#fff"/>
                </g>
              </g>
            </g>
          </g>
        </g>
        <g id="组_13319" data-name="组 13319">
          <g id="组_13318" data-name="组 13318" clip-path="url(#clip-path)">
            <path id="路径_12029" data-name="路径 12029" d="M14,23H10a1,1,0,0,1-.98-.8l-.489-2.443a8.447,8.447,0,0,1-1.516-.871l-2.355.8a1,1,0,0,1-1.186-.447l-2-3.464a1,1,0,0,1,.206-1.251l1.87-1.644a7.646,7.646,0,0,1,0-1.746L1.68,9.483a1,1,0,0,1-.206-1.251l2-3.464A1,1,0,0,1,4.66,4.321l2.355.8a8.443,8.443,0,0,1,1.516-.87L9.02,1.8A1,1,0,0,1,10,1h4a1,1,0,0,1,.981.8l.488,2.443a8.451,8.451,0,0,1,1.517.87l2.355-.8a1,1,0,0,1,1.186.447l2,3.464a1,1,0,0,1-.206,1.251L20.45,11.127a7.646,7.646,0,0,1,0,1.746l1.871,1.644a1,1,0,0,1,.206,1.251l-2,3.464a1,1,0,0,1-1.186.447l-2.355-.8a8.421,8.421,0,0,1-1.517.871L14.981,22.2A1,1,0,0,1,14,23m-3.18-2h2.36l.434-2.167a1,1,0,0,1,.634-.741A6.463,6.463,0,0,0,16.157,17a1,1,0,0,1,.961-.179l2.087.706,1.18-2.044-1.66-1.459a1,1,0,0,1-.326-.92,6.03,6.03,0,0,0,0-2.2,1,1,0,0,1,.326-.92l1.66-1.459L19.2,6.478l-2.087.706a1,1,0,0,1-.96-.179,6.493,6.493,0,0,0-1.91-1.1,1,1,0,0,1-.634-.741L13.18,3H10.82l-.433,2.166a1,1,0,0,1-.634.742,6.493,6.493,0,0,0-1.91,1.1,1,1,0,0,1-.96.179L4.8,6.478,3.616,8.522l1.66,1.459A1,1,0,0,1,5.6,10.9a6.041,6.041,0,0,0,0,2.2,1,1,0,0,1-.325.919l-1.66,1.459L4.8,17.522l2.087-.706a1,1,0,0,1,.96.179,6.481,6.481,0,0,0,1.91,1.1,1,1,0,0,1,.634.742Z" transform="translate(0 0)" fill="#fff"/>
            <path id="路径_12030" data-name="路径 12030" d="M12,16a4,4,0,1,1,4-4,4,4,0,0,1-4,4m0-6a2,2,0,1,0,2,2,2,2,0,0,0-2-2" transform="translate(0 0)" fill="#fff"/>
          </g>
        </g>
      </g>
    </g>
  </g>
</svg>
