<svg id="L_Share" xmlns="http://www.w3.org/2000/svg" width="32" height="32" viewBox="0 0 32 32">
  <rect id="矩形_4894" data-name="矩形 4894" width="32" height="32" fill="none"/>
  <path id="路径_12247" data-name="路径 12247" d="M24,12H22a1,1,0,0,0,0,2h2a1,1,0,0,1,1,1V27a1,1,0,0,1-1,1H8a1,1,0,0,1-1-1V15a1,1,0,0,1,1-1h2a1,1,0,0,0,0-2H8a3,3,0,0,0-3,3V27a3,3,0,0,0,3,3H24a3,3,0,0,0,3-3V15a3,3,0,0,0-3-3" fill="#fff"/>
  <path id="路径_12248" data-name="路径 12248" d="M10.994,8.42,15,4.414V22.429a1,1,0,0,0,2,0V4.414L21.006,8.42A1,1,0,0,0,22.42,7.006L16.707,1.293a1,1,0,0,0-1.414,0L9.58,7.006A1,1,0,1,0,10.994,8.42" fill="#fff"/>
</svg>
