<svg id="SP_O_2_Star_empty" data-name="SP_O_2 Star_empty" xmlns="http://www.w3.org/2000/svg" xmlns:xlink="http://www.w3.org/1999/xlink" width="14" height="14" viewBox="0 0 14 14">
  <defs>
    <clipPath id="clip-path">
      <rect id="矩形_4755" data-name="矩形 4755" width="1" height="14" transform="translate(-11177 -11195)" fill="#fff" stroke="#707070" stroke-width="1"/>
    </clipPath>
    <linearGradient id="linear-gradient" x1="0.169" y1="0.251" x2="0.754" y2="0.884" gradientUnits="objectBoundingBox">
      <stop offset="0" stop-color="#ffed14"/>
      <stop offset="1" stop-color="#ff5b05"/>
    </linearGradient>
  </defs>
  <g id="组_14249" data-name="组 14249" transform="translate(11177 11195)">
    <g id="多边形_155" data-name="多边形 155" transform="translate(-11177 -11194.563)" fill="none" opacity="0.304">
      <path d="M6.28,1.482a.8.8,0,0,1,1.439,0l1.19,2.45a.8.8,0,0,0,.623.445l2.731.332A.8.8,0,0,1,12.7,6.1L10.733,7.884a.8.8,0,0,0-.247.748L11,11.226a.8.8,0,0,1-1.161.861L7.376,10.776a.8.8,0,0,0-.752,0L4.162,12.087A.8.8,0,0,1,3,11.226l.513-2.594a.8.8,0,0,0-.247-.748L1.3,6.1a.8.8,0,0,1,.441-1.387l2.731-.332a.8.8,0,0,0,.623-.445Z" stroke="none"/>
      <path d="M 7 2.28897762298584 L 5.989919662475586 4.368716239929199 C 5.721670150756836 4.921046257019043 5.197609901428223 5.295045852661133 4.588069915771484 5.369175910949707 L 2.291437149047852 5.648451805114746 L 3.939020156860352 7.143276214599609 C 4.404020309448242 7.565155982971191 4.617179870605469 8.209856033325195 4.49530029296875 8.825746536254883 L 4.063776969909668 11.00673007965088 L 6.153850078582764 9.89361572265625 C 6.413350105285645 9.755395889282227 6.705949783325195 9.68233585357666 7 9.68233585357666 C 7.29403018951416 9.68233585357666 7.586619853973389 9.755386352539062 7.84611988067627 9.893595695495605 L 9.936213493347168 11.00672912597656 L 9.50469970703125 8.825776100158691 C 9.382820129394531 8.209856033325195 9.595979690551758 7.565155982971191 10.06097030639648 7.143286228179932 L 11.70858097076416 5.648443222045898 L 9.41195011138916 5.369165897369385 C 8.802410125732422 5.295065879821777 8.278339385986328 4.921055793762207 8.010080337524414 4.368716239929199 L 7 2.28897762298584 M 7 1.031183242797852 C 7.286877632141113 1.031183242797852 7.573754787445068 1.181350708007812 7.719620227813721 1.481685638427734 L 8.909599304199219 3.931836128234863 C 9.028299331665039 4.176236152648926 9.262929916381836 4.343686103820801 9.53264045715332 4.376476287841797 L 12.26342964172363 4.708545684814453 C 12.9435396194458 4.791255950927734 13.21181011199951 5.634826183319092 12.7044095993042 6.095186233520508 L 10.73291015625 7.883895874023438 C 10.52501964569092 8.072505950927734 10.43119049072266 8.35628604888916 10.48567962646484 8.631656646728516 L 10.99900054931641 11.22610569000244 C 11.12992000579834 11.88779640197754 10.43350887298584 12.40455627441406 9.838170051574707 12.08748626708984 L 7.376049995422363 10.77622604370117 C 7.140979766845703 10.65103530883789 6.859020233154297 10.65103530883789 6.623950004577637 10.77622604370117 L 4.161829948425293 12.08748626708984 C 3.566486358642578 12.40455722808838 2.87007999420166 11.88779544830322 3.00098991394043 11.22610569000244 L 3.514320373535156 8.631656646728516 C 3.56881046295166 8.35628604888916 3.474980354309082 8.072505950927734 3.26708984375 7.883895874023438 L 1.295590400695801 6.095186233520508 C 0.7881898880004883 5.634826183319092 1.056460380554199 4.791255950927734 1.736570358276367 4.708556175231934 L 4.46735954284668 4.376485824584961 C 4.737070083618164 4.343686103820801 4.971699714660645 4.176236152648926 5.090399742126465 3.931836128234863 L 6.280379772186279 1.481685638427734 C 6.426245212554932 1.181350708007812 6.713122367858887 1.031183242797852 7 1.031183242797852 Z" stroke="none" fill="#fff"/>
    </g>
    <rect id="矩形_4698" data-name="矩形 4698" width="14" height="14" transform="translate(-11177 -11195)" fill="none"/>
    <g id="蒙版组_12222" data-name="蒙版组 12222" clip-path="url(#clip-path)">
      <path id="多边形_109" data-name="多边形 109" d="M6.28,1.482a.8.8,0,0,1,1.439,0l1.19,2.45a.8.8,0,0,0,.623.445l2.731.332A.8.8,0,0,1,12.7,6.1L10.733,7.884a.8.8,0,0,0-.247.748L11,11.226a.8.8,0,0,1-1.161.861L7.376,10.776a.8.8,0,0,0-.752,0L4.162,12.087A.8.8,0,0,1,3,11.226l.513-2.594a.8.8,0,0,0-.247-.748L1.3,6.1a.8.8,0,0,1,.441-1.387l2.731-.332a.8.8,0,0,0,.623-.445Z" transform="translate(-11177 -11194.563)" fill="url(#linear-gradient)"/>
    </g>
  </g>
</svg>
